<?xml version="1.0" encoding="UTF-8"?>
<svg width="16px" height="13px" viewBox="0 0 16 13" version="1.1" xmlns="http://www.w3.org/2000/svg" xmlns:xlink="http://www.w3.org/1999/xlink">
    <!-- Generator: Sketch 50.2 (55047) - http://www.bohemiancoding.com/sketch -->
    <title>arrow-left - anticon</title>
    <desc>Created with Sketch.</desc>
    <defs></defs>
    <g id="Verifikasi-PWA" stroke="none" stroke-width="1" fill="none" fill-rule="evenodd">
        <g id="1---a---verifikasi---otp-copy" transform="translate(-17.000000, -21.000000)" fill="#FFFFFF">
            <g id="header">
                <path d="M31.6992188,26.640625 C31.9466158,26.640625 32.1582022,26.7317699 32.3339844,26.9140625 C32.5097665,27.0963551 32.5911459,27.3111967 32.578125,27.5585938 C32.5651041,27.779949 32.4739592,27.9687492 32.3046875,28.125 C32.1354158,28.2812508 31.9401053,28.359375 31.71875,28.359375 L20.5273438,28.359375 L24.7460938,32.421875 C24.9153654,32.5911467 25.0032552,32.7929676 25.0097656,33.0273438 C25.0162761,33.2617199 24.9348967,33.4635408 24.765625,33.6328125 C24.5963533,33.8151051 24.3880221,33.90625 24.140625,33.90625 C23.9192697,33.90625 23.7239592,33.8281258 23.5546875,33.671875 L17.7734375,28.1054688 C17.5911449,27.9361971 17.5,27.731121 17.5,27.4902344 C17.5,27.2493478 17.5911449,27.0442717 17.7734375,26.875 L23.515625,21.328125 C23.6979176,21.1718742 23.9062488,21.09375 24.140625,21.09375 C24.3750012,21.09375 24.5735669,21.1816397 24.7363281,21.3574219 C24.8990894,21.533204 24.9804688,21.7382801 24.9804688,21.9726562 C24.9804688,22.2070324 24.8893238,22.4088533 24.7070312,22.578125 L20.4882812,26.640625 L31.6992188,26.640625 Z" id="arrow-left---anticon"></path>
            </g>
        </g>
    </g>
</svg>