<?xml version="1.0" encoding="UTF-8"?>
<svg width="6px" height="10px" viewBox="0 0 6 10" version="1.1" xmlns="http://www.w3.org/2000/svg" xmlns:xlink="http://www.w3.org/1999/xlink">
    <!-- Generator: Sketch 57.1 (83088) - https://sketch.com -->
    <title></title>
    <desc>Created with Sketch.</desc>
    <g id="Exploration" stroke="none" stroke-width="1" fill="none" fill-rule="evenodd">
        <g id="Contribute---Choose-Amount-Copy" transform="translate(-324.000000, -144.000000)" fill="#989898" fill-rule="nonzero">
            <g id="Group-4" transform="translate(16.000000, 125.000000)">
                <path d="M315.508929,21.6517857 C315.568453,21.7113098 315.598214,21.7797615 315.598214,21.8571429 C315.598214,21.9345242 315.568453,22.0029759 315.508929,22.0625 L311.348214,26.2232143 C311.28869,26.2827384 311.220238,26.3125 311.142857,26.3125 C311.065476,26.3125 310.997024,26.2827384 310.9375,26.2232143 L306.776786,22.0625 C306.717262,22.0029759 306.6875,21.9345242 306.6875,21.8571429 C306.6875,21.7797615 306.717262,21.7113098 306.776786,21.6517857 L307.223214,21.2053571 C307.282738,21.145833 307.35119,21.1160714 307.428571,21.1160714 C307.505953,21.1160714 307.574404,21.145833 307.633929,21.2053571 L311.142857,24.7142857 L314.651786,21.2053571 C314.71131,21.145833 314.779762,21.1160714 314.857143,21.1160714 C314.934524,21.1160714 315.002976,21.145833 315.0625,21.2053571 L315.508929,21.6517857 Z" id="" transform="translate(311.142857, 23.714286) rotate(-90.000000) translate(-311.142857, -23.714286) "></path>
            </g>
        </g>
    </g>
</svg>